<svg width="167" height="167" viewBox="0 0 167 167" fill="none" xmlns="http://www.w3.org/2000/svg">
<path d="M83.5 156.562C64.1226 156.562 45.5389 148.865 31.837 135.163C18.1351 121.461 10.4375 102.877 10.4375 83.5C10.4375 64.1226 18.1351 45.5389 31.837 31.837C45.5389 18.1351 64.1226 10.4375 83.5 10.4375C102.877 10.4375 121.461 18.1351 135.163 31.837C148.865 45.5389 156.562 64.1226 156.562 83.5C156.562 102.877 148.865 121.461 135.163 135.163C121.461 148.865 102.877 156.562 83.5 156.562ZM83.5 167C105.646 167 126.884 158.203 142.543 142.543C158.203 126.884 167 105.646 167 83.5C167 61.3544 158.203 40.1159 142.543 24.4566C126.884 8.7973 105.646 0 83.5 0C61.3544 0 40.1159 8.7973 24.4566 24.4566C8.7973 40.1159 0 61.3544 0 83.5C0 105.646 8.7973 126.884 24.4566 142.543C40.1159 158.203 61.3544 167 83.5 167Z" fill="#04B900"/>
<path d="M114.499 51.8744C114.425 51.9464 114.355 52.0231 114.291 52.104L78.0412 98.2899L56.1955 76.4338C54.7115 75.051 52.7488 74.2983 50.7208 74.334C48.6928 74.3698 46.7578 75.1914 45.3236 76.6256C43.8893 78.0599 43.0678 79.9948 43.032 82.0229C42.9962 84.0509 43.749 86.0136 45.1317 87.4976L72.7494 115.126C73.4934 115.868 74.3793 116.453 75.3544 116.846C76.3295 117.239 77.3737 117.432 78.4247 117.412C79.4758 117.393 80.5121 117.162 81.472 116.733C82.4318 116.304 83.2955 115.687 84.0114 114.917L125.678 62.8337C127.097 61.3446 127.872 59.357 127.837 57.3005C127.802 55.244 126.959 53.2839 125.491 51.844C124.022 50.4042 122.046 49.6001 119.989 49.6058C117.932 49.6115 115.96 50.4264 114.499 51.8744Z" fill="#04B900"/>
</svg>
