<svg width="47" height="47" viewBox="0 0 47 47" fill="none" xmlns="http://www.w3.org/2000/svg">
<path fill-rule="evenodd" clip-rule="evenodd" d="M10.7579 1.16211C19.056 0.249739 27.6315 0.265117 35.9262 1.20724C40.8328 1.76454 44.789 5.63736 45.3575 10.5744C46.3344 19.059 46.3191 27.6286 45.3117 36.1096C44.7255 41.0446 40.7555 44.9032 35.8469 45.4429C27.5488 46.3553 18.9734 46.3399 10.6786 45.3978C5.77198 44.8405 1.81578 40.9677 1.24732 36.0306C0.270385 27.546 0.285753 18.9764 1.29311 10.4954C1.87927 5.56041 5.84934 1.7018 10.7579 1.16211ZM26.0088 12.5591C26.0061 14.0431 24.8009 15.244 23.3169 15.2413C21.8329 15.2387 20.632 14.0335 20.6347 12.5495C20.6373 11.0654 21.8425 9.86456 23.3265 9.86722C24.8106 9.86988 26.0114 11.0751 26.0088 12.5591ZM23.3085 19.9437C24.4215 19.9457 25.3222 20.8496 25.3202 21.9626L25.2961 35.3979C25.2941 36.5109 24.3902 37.4116 23.2772 37.4096C22.1641 37.4076 21.2635 36.5037 21.2655 35.3907L21.2896 21.9554C21.2916 20.8424 22.1955 19.9417 23.3085 19.9437Z" fill="#EEEEEE"/>
</svg>
