<svg width="361" height="292" viewBox="0 0 361 292" fill="none" xmlns="http://www.w3.org/2000/svg">
<g clip-path="url(#clip0_469_388)">
<path opacity="0.1" d="M185.7 291.897C275.8 291.897 348.84 226.741 348.84 146.367C348.84 65.9933 275.8 0.837402 185.7 0.837402C95.6008 0.837402 22.5607 65.9933 22.5607 146.367C22.5607 226.741 95.6008 291.897 185.7 291.897Z" fill="#6C63FF"/>
<path opacity="0.1" d="M60.1527 230.13C93.3741 230.13 120.305 225.957 120.305 220.81C120.305 215.663 93.3741 211.491 60.1527 211.491C26.9313 211.491 0 215.663 0 220.81C0 225.957 26.9313 230.13 60.1527 230.13Z" fill="#6C63FF"/>
<path opacity="0.1" d="M89.0646 274.528C101.986 274.528 112.461 272.365 112.461 269.697C112.461 267.029 101.986 264.866 89.0646 264.866C76.143 264.866 65.668 267.029 65.668 269.697C65.668 272.365 76.143 274.528 89.0646 274.528Z" fill="#6C63FF"/>
<path d="M16.4475 191.87C14.6649 195.336 13.8324 199.212 14.0344 203.104C14.2365 206.996 15.4661 210.766 17.5981 214.029C18.2975 215.077 18.941 215.832 19.4551 216.032C21.9207 217 26.8588 219.38 26.8588 219.38L38.7494 214.71C38.7494 214.71 40.6799 204.503 42.5055 195.74C43.7505 189.762 44.9536 184.459 45.4467 183.529C46.6777 181.24 45.4467 156.312 45.4467 156.312C45.4467 156.312 33.556 155.515 30.2861 164.677L28.8557 167.474L16.4475 191.87Z" fill="#A8A8A8"/>
<path opacity="0.1" d="M32.2343 194.625C39.4631 202.906 42.5127 195.743 42.5127 195.743C43.7577 189.766 44.9608 184.463 45.4539 183.533C46.6849 181.243 45.4539 156.316 45.4539 156.316C45.4539 156.316 33.5632 155.519 30.2933 164.681L28.8629 167.478C27.9466 174.808 27.0409 188.665 32.2343 194.625Z" fill="white"/>
<path d="M33.822 217.706L75.789 212.861L83.2766 163.615L77.6146 150.824C75.2225 145.377 71.91 140.382 67.8223 136.059C64.972 133.056 61.5272 130.168 57.9041 128.718C57.409 128.518 56.9035 128.346 56.3898 128.2C55.7993 128.021 55.1747 127.984 54.567 128.091C53.9593 128.199 53.3856 128.448 52.8925 128.819C47.7166 132.486 45.8666 148.077 45.2685 155.582C45.0225 158.666 44.6057 161.734 44.02 164.772L33.822 217.706Z" fill="#A8A8A8"/>
<path opacity="0.1" d="M61.7615 163.084L53.0183 184.582C57.5997 181.233 64.3879 162.996 64.3879 162.996L70.4696 183.788L65.6224 161.874C66.332 157.115 66.5383 152.295 66.2379 147.493C65.8533 141.991 60.6878 133.161 57.883 128.715C57.3879 128.515 56.8824 128.342 56.3687 128.197C55.7782 128.018 55.1537 127.981 54.546 128.088C53.9383 128.196 53.3645 128.445 52.8715 128.816C55.0747 133.238 60.5829 144.295 62.2616 147.58C64.3914 151.719 61.7615 163.084 61.7615 163.084Z" fill="white"/>
<path d="M68.8994 219.38H91.67C92.6067 219.381 93.5336 219.19 94.3944 218.821C95.2552 218.452 96.032 217.912 96.6774 217.234C97.3228 216.555 97.8234 215.753 98.1488 214.875C98.4742 213.997 98.6175 213.062 98.5701 212.127C98.0665 202.367 96.79 184.966 93.7544 173.92C92.1141 167.96 90.2081 164.831 88.4595 163.29C87.6395 162.499 86.5809 162.001 85.4484 161.874C84.5894 161.8 83.7296 162.008 83.0003 162.468C78.7721 166.519 73.834 187.839 73.834 187.839L68.8994 219.38Z" fill="#A8A8A8"/>
<path opacity="0.1" d="M89.9214 200.473C90.8586 203.07 91.2294 206.066 89.9214 208.985L84.8469 211.491C84.8469 211.491 71.2076 205.713 72.8653 193.87C72.8653 193.87 73.313 191.423 78.0098 191.611C80.6512 191.739 83.1948 192.65 85.3163 194.228C87.4377 195.806 89.0409 197.98 89.9214 200.473V200.473Z" fill="white"/>
<path opacity="0.1" d="M84.5005 169.341C84.3432 165.188 86.5989 163.748 88.4629 163.29C87.6429 162.499 86.5843 162.001 85.4518 161.874C84.1543 162.959 83.2347 164.428 82.8254 166.069L78.0691 189.241C78.0691 189.241 84.7663 176.3 84.5005 169.341Z" fill="white"/>
<path d="M62.9085 187.665L74.1836 203.08L76.1385 215.805L68.8922 219.381L58.446 221.688C57.4399 221.911 56.4054 221.978 55.3789 221.887L26.8728 219.381L30.7513 210.393L44.1457 191.597L62.9085 187.665Z" fill="#A8A8A8"/>
<path opacity="0.1" d="M58.544 182.372C58.544 182.372 66.238 182.9 63.3493 196.114C60.4605 209.327 30.7374 210.386 30.7374 210.386C30.7374 210.386 37.0535 199.2 46.7688 191.185C47.86 190.286 48.9126 189.35 49.9163 188.35C52.1511 186.116 56.4247 182.191 58.544 182.372Z" fill="white"/>
<path opacity="0.1" d="M65.465 192.335C65.465 192.335 75.8903 201.818 74.9075 216.413Z" fill="black"/>
<path opacity="0.1" d="M83.0036 162.468C83.0036 162.468 72.0642 177.01 70.8367 199.386Z" fill="black"/>
<path opacity="0.1" d="M45.4572 156.306C45.4572 156.306 50.7521 180.338 37.5325 198.452Z" fill="black"/>
<path d="M81.7691 83.586C81.7307 84.3166 82.0944 84.9842 82.3077 85.6833C82.6606 87.0336 82.6255 88.456 82.2063 89.7872C81.8146 91.1855 81.1571 92.6641 81.6572 94.0309C81.7726 94.3525 81.9475 94.6461 82.0524 94.9677C82.4861 96.2961 81.6817 97.6943 80.8004 98.7815L84.2592 101.204C84.7642 101.622 85.3649 101.909 86.0078 102.039C86.6548 102.116 87.4067 101.77 87.5396 101.134C87.5851 100.917 87.5396 100.69 87.5816 100.47C87.6241 100.185 87.7343 99.9146 87.9028 99.6811C88.0713 99.4475 88.2934 99.2577 88.5503 99.1275C89.0698 98.8729 89.6492 98.7653 90.2255 98.8164C92.3483 98.9318 94.1529 100.327 96.0834 101.221C97.3561 101.772 98.6751 102.21 100.025 102.529C100.791 102.728 101.641 102.91 102.333 102.529C103.025 102.148 103.344 101.263 103.291 100.463C103.184 99.6667 102.935 98.8961 102.557 98.1872C102.175 97.4791 101.945 96.6994 101.882 95.8976C101.882 94.723 102.525 93.6534 102.742 92.4998C103.046 90.8604 102.427 89.193 101.672 87.7038C100.917 86.2147 100 84.7815 99.6331 83.1595C99.5602 82.6679 99.4323 82.1859 99.2519 81.7228C99.0769 81.3711 98.84 81.0538 98.5524 80.786C97.255 79.5031 95.4049 78.8948 93.5933 78.762C91.7818 78.6292 89.9527 78.9263 88.1551 79.2374C87.4693 79.3353 86.7938 79.4956 86.1372 79.7163C85.1989 80.089 84.3079 80.5713 83.4828 81.153C82.6644 81.7193 81.8216 82.5478 81.7691 83.586Z" fill="#464353"/>
<g opacity="0.1">
<path opacity="0.1" d="M101.871 95.1811C101.871 95.286 101.871 95.3908 101.892 95.4922C102.001 94.468 102.539 93.5067 102.732 92.4825C102.806 92.0721 102.828 91.654 102.798 91.238C102.798 91.4198 102.763 91.5876 102.732 91.7834C102.511 92.9369 101.857 94.0066 101.871 95.1811Z" fill="black"/>
<path opacity="0.1" d="M82.5419 87.0816C82.5831 86.3742 82.5039 85.665 82.3076 84.9842C82.1006 84.4537 81.9312 83.9094 81.8005 83.3552C81.8005 83.4286 81.7726 83.4985 81.7691 83.572C81.7306 84.3025 82.0943 84.9702 82.3076 85.6693C82.4428 86.1288 82.5214 86.6031 82.5419 87.0816V87.0816Z" fill="black"/>
<path opacity="0.1" d="M103.26 100.271C103.235 100.583 103.138 100.885 102.975 101.153C102.812 101.421 102.589 101.647 102.322 101.812C101.623 102.193 100.78 102.011 100.014 101.812C98.664 101.494 97.345 101.055 96.0729 100.501C94.1424 99.6099 92.3378 98.2152 90.215 98.0998C89.6387 98.0487 89.0593 98.1563 88.5398 98.4109C88.2829 98.5411 88.0609 98.7309 87.8923 98.9644C87.7238 99.198 87.6136 99.4684 87.5711 99.7532C87.5466 99.9734 87.5711 100.201 87.5291 100.417C87.3927 101.054 86.6443 101.4 85.9973 101.323C85.3544 101.193 84.7537 100.906 84.2487 100.487L81.1396 98.306C81.0242 98.4633 80.9088 98.6171 80.7899 98.7605L84.2487 101.186C84.7537 101.605 85.3544 101.892 85.9973 102.022C86.6443 102.099 87.3962 101.753 87.5291 101.117C87.5746 100.9 87.5291 100.673 87.5711 100.452C87.6136 100.168 87.7238 99.8971 87.8923 99.6636C88.0609 99.43 88.2829 99.2402 88.5398 99.11C89.0593 98.8554 89.6387 98.7478 90.215 98.7989C92.3378 98.9143 94.1424 100.309 96.0729 101.2C97.345 101.754 98.664 102.193 100.014 102.511C100.78 102.711 101.63 102.892 102.322 102.511C103.015 102.13 103.333 101.246 103.281 100.445C103.277 100.386 103.267 100.33 103.26 100.271Z" fill="black"/>
<path opacity="0.1" d="M82.0524 94.9504C82.0955 95.0909 82.1271 95.2347 82.1468 95.3803C82.201 95.0017 82.1687 94.6157 82.0524 94.2512C81.9475 93.9296 81.7726 93.636 81.6572 93.3144C81.5731 93.081 81.519 92.8379 81.4964 92.5908C81.4447 93.0711 81.4996 93.5569 81.6572 94.0135C81.7726 94.3351 81.9475 94.6323 82.0524 94.9504Z" fill="black"/>
</g>
<path d="M86.1582 227.592C86.1343 227.691 86.0776 227.78 85.9974 227.843C85.9123 227.888 85.8168 227.908 85.7211 227.903C84.4761 227.931 83.2311 227.903 81.9895 227.99C80.8145 228.092 79.6359 228.34 78.4643 228.207C78.0895 228.22 77.7198 228.117 77.4066 227.911C77.0933 227.704 76.8518 227.406 76.7157 227.057C76.6418 226.904 76.5764 226.748 76.5198 226.588C76.1971 225.764 76.0344 224.887 76.0407 224.002C76.0407 223.767 76.0407 223.54 76.0407 223.303C76.0254 223.046 75.9915 222.792 75.9393 222.541C75.8332 222.253 75.8458 221.935 75.9743 221.656C76.4709 220.751 77.6704 220.569 78.5937 220.499C80.7327 220.338 82.8837 220.496 84.9762 220.967C85.1405 221.771 85.3259 222.568 85.5218 223.365C85.6663 223.95 85.8202 224.533 85.9834 225.113C86.0929 225.473 86.1817 225.838 86.2492 226.207C86.3357 226.669 86.3044 227.145 86.1582 227.592Z" fill="#464353"/>
<path opacity="0.06" d="M86.1582 227.592C86.1342 227.691 86.0776 227.78 85.9973 227.843C85.9122 227.888 85.8168 227.908 85.721 227.903C84.476 227.931 83.231 227.903 81.9895 227.99C80.8144 228.092 79.6358 228.34 78.4642 228.207C78.0894 228.22 77.7198 228.117 77.4065 227.911C77.0932 227.704 76.8518 227.406 76.7156 227.057C76.6417 226.904 76.5763 226.748 76.5198 226.588H76.9674C78.4398 226.588 79.9156 226.536 81.3879 226.536C81.8321 226.536 82.2797 226.515 82.7204 226.463C83.1611 226.41 83.5213 226.337 83.9235 226.288C84.5255 226.23 85.1303 226.206 85.735 226.214H86.2316C86.3226 226.672 86.2973 227.146 86.1582 227.592Z" fill="black"/>
<path d="M111.915 221.1C111.526 221.555 111.028 221.905 110.468 222.118C107.978 223.166 105.099 222.694 102.529 221.841C101.954 221.628 101.363 221.459 100.763 221.335C100.215 221.258 99.6619 221.219 99.1085 221.219C98.7133 221.219 98.3181 221.188 97.9229 221.163C96.9227 221.1 95.926 221.002 94.9328 220.905C94.2403 220.854 93.5529 220.75 92.8764 220.594C92.6841 220.544 92.4993 220.469 92.3273 220.37V220.37C92.1806 220.305 92.0553 220.2 91.9661 220.067C91.8769 219.934 91.8275 219.778 91.8237 219.618C91.8517 219.174 92.3133 218.919 92.719 218.727C96.3177 217.171 100.228 216.497 104.11 215.955C104.504 215.889 104.889 215.771 105.253 215.605C105.69 215.43 105.736 215.717 105.953 216.039C106.055 216.188 106.172 216.326 106.302 216.451C106.724 216.832 107.219 217.122 107.757 217.304C108.701 217.654 109.712 217.748 110.656 218.08C110.942 218.179 111.215 218.311 111.471 218.472C111.697 218.595 111.892 218.768 112.04 218.977C112.189 219.187 112.288 219.428 112.329 219.682C112.37 219.935 112.353 220.195 112.278 220.441C112.203 220.687 112.073 220.912 111.898 221.1H111.915Z" fill="#464353"/>
<path opacity="0.06" d="M111.916 221.1C111.526 221.555 111.028 221.905 110.468 222.117C107.978 223.166 105.099 222.694 102.529 221.841C101.954 221.628 101.364 221.458 100.763 221.334C100.215 221.257 99.6621 221.219 99.1087 221.219C98.7135 221.219 98.3183 221.188 97.9231 221.163C98.2448 220.859 98.5736 220.562 98.9093 220.275C99.1527 220.048 99.4329 219.863 99.7382 219.73C100.118 219.605 100.523 219.578 100.917 219.649C102.917 219.926 104.715 221.327 106.733 221.205C107.673 221.097 108.582 220.803 109.408 220.342C110.08 220.068 110.678 219.642 111.157 219.097C111.301 218.909 111.411 218.697 111.482 218.471C111.708 218.594 111.902 218.767 112.051 218.977C112.2 219.187 112.298 219.428 112.34 219.681C112.381 219.935 112.363 220.195 112.289 220.441C112.214 220.687 112.084 220.912 111.909 221.1H111.916Z" fill="black"/>
<path d="M111.212 160.35C110.863 161.049 110.415 161.807 109.66 162.024C108.562 162.339 107.505 161.353 107.026 160.318C106.373 158.8 106.25 157.105 106.677 155.508C106.876 154.701 107.18 153.925 107.351 153.114C107.475 152.431 107.55 151.741 107.575 151.048C107.679 150.014 107.654 148.971 107.502 147.944C106.939 144.941 104.354 142.7 103.494 139.75C103.06 138.278 103.081 136.712 103.106 135.178C103.098 134.79 103.138 134.402 103.225 134.024C103.251 133.921 103.286 133.82 103.33 133.724C103.907 132.444 105.617 132.269 106.806 131.525C107.463 131.116 108.957 129.798 109.509 131C109.629 131.268 109.718 131.548 109.775 131.836C110.002 132.906 109.911 134.16 109.967 135.171C110.181 138.988 111.132 142.798 110.691 146.594C110.586 147.242 110.535 147.896 110.537 148.552C110.632 150.195 111.66 151.618 112.132 153.191C112.86 155.557 112.276 158.133 111.212 160.35Z" fill="#FBBEBE"/>
<path opacity="0.1" d="M109.793 131.843C109.533 131.749 109.248 131.749 108.988 131.843L106.621 132.542C105.791 132.763 104.982 133.057 104.204 133.419C103.864 133.586 103.542 133.786 103.242 134.017C103.268 133.914 103.303 133.813 103.347 133.716C103.924 132.437 105.634 132.262 106.823 131.518C107.481 131.109 108.974 129.791 109.527 130.993C109.647 131.266 109.736 131.551 109.793 131.843V131.843Z" fill="black"/>
<path d="M109.946 131.577C109.804 131.491 109.643 131.439 109.476 131.425C109.31 131.412 109.143 131.438 108.988 131.5L106.621 132.2C105.791 132.421 104.982 132.714 104.204 133.077C103.791 133.278 103.404 133.529 103.053 133.825C101.948 131.906 101.654 129.63 101.452 127.428C101.34 126.145 101.256 124.859 101.207 123.583C101.152 122.665 101.171 121.744 101.263 120.828C101.396 119.78 101.7 118.755 101.889 117.714C102.001 117.104 102.074 116.487 102.106 115.868C102.196 114.515 102.134 113.156 101.92 111.817C101.717 110.393 101.392 108.99 100.948 107.622C100.724 106.996 100.455 106.391 100.21 105.776L100.126 105.559C99.6841 104.432 99.3229 103.274 99.0455 102.095C98.9336 101.613 98.9266 101.106 98.5559 100.777C98.904 100.736 99.2548 100.721 99.6051 100.735C99.675 100.735 99.745 100.735 99.8149 100.735C101.252 100.826 102.636 101.31 103.816 102.134C105.335 103.23 106.491 104.757 107.131 106.517C107.869 108.485 107.991 110.625 108.086 112.725C108.275 116.855 108.391 120.987 108.436 125.121C108.436 125.914 108.471 126.76 108.925 127.414C109.053 127.575 109.17 127.744 109.275 127.921C109.439 128.27 109.415 128.659 109.548 129.012C109.645 129.223 109.756 129.429 109.88 129.627C110.037 129.926 110.124 130.257 110.135 130.595C110.147 130.932 110.082 131.268 109.946 131.577Z" fill="#464353"/>
<path d="M86.6688 90.5459C86.3191 90.4305 85.9694 90.3081 85.6196 90.1963L86.3471 90.2522C86.4683 90.3336 86.5768 90.4325 86.6688 90.5459Z" fill="#FBBEBE"/>
<path d="M100.99 103.161C100.92 103.399 100.85 103.637 100.773 103.861C100.596 104.435 100.38 104.997 100.126 105.542C99.7299 106.438 99.1688 107.251 98.4721 107.94C98.242 108.182 97.9597 108.369 97.6467 108.485C97.3819 108.553 97.1081 108.579 96.8353 108.562C95.9027 108.562 94.9701 108.548 94.0375 108.52C93.3115 108.528 92.5867 108.457 91.8762 108.307C91.0942 108.094 90.3507 107.759 89.673 107.314C87.0605 105.699 84.9132 103.238 83.9934 100.323C83.878 99.9525 83.7976 99.5085 84.0529 99.2184C84.3041 99.0135 84.6206 98.9056 84.9447 98.9143H84.9867C85.7386 98.8165 86.463 98.568 87.1165 98.1837C87.5398 97.9671 87.8811 97.6186 88.0887 97.1909C88.2304 96.684 88.2194 96.1466 88.0572 95.6459L87.2809 92.1223C87.2 91.558 86.988 91.0204 86.6618 90.5527C86.8892 90.6331 87.1165 90.7066 87.3613 90.7695C89.5226 91.3532 91.8867 91.0002 94.0061 91.7657C94.8174 92.0628 95.6288 92.5977 95.8736 93.4296C96.2828 94.8279 94.9153 96.2786 95.307 97.6768C95.5693 98.6276 96.5381 99.1764 97.4054 99.6204L97.9894 99.9175L99.6087 100.739L99.8325 100.851L99.8675 100.868C100.378 101.127 100.917 101.449 101.095 101.997C101.171 102.388 101.135 102.791 100.99 103.161V103.161Z" fill="#FBBEBE"/>
<path opacity="0.1" d="M105.257 111.369C105.197 112.263 104.98 113.139 104.613 113.956C103.911 115.369 103.535 116.922 103.512 118.5C103.242 123.219 101.448 128.837 104.019 132.801C104.082 132.899 104.145 132.996 104.204 133.098C103.791 133.299 103.405 133.55 103.053 133.846C101.948 131.927 101.655 129.651 101.452 127.449C101.34 126.166 101.256 124.88 101.207 123.604C101.152 122.686 101.171 121.764 101.263 120.849C101.396 119.8 101.7 118.776 101.889 117.735C102.001 117.125 102.074 116.508 102.106 115.889C102.196 114.536 102.134 113.177 101.92 111.837C101.717 110.414 101.392 109.011 100.948 107.643C100.724 107.017 100.455 106.412 100.21 105.797L100.126 105.58C99.7299 106.476 99.1688 107.289 98.472 107.978C98.242 108.22 97.9597 108.407 97.6467 108.524C97.3819 108.591 97.1081 108.617 96.8353 108.6C95.9027 108.6 94.9701 108.587 94.0375 108.559C93.3115 108.567 92.5867 108.495 91.8762 108.345C91.0942 108.132 90.3507 107.797 89.673 107.353C87.0605 105.738 84.9132 103.277 83.9934 100.361C83.878 99.9908 83.7976 99.5468 84.0529 99.2567C84.3041 99.0518 84.6206 98.9439 84.9447 98.9526H84.9867L88.1342 102.843C88.4952 103.255 88.8008 103.712 89.0435 104.203C89.0904 104.368 89.1884 104.513 89.3232 104.619C89.4327 104.669 89.553 104.691 89.673 104.682C92.6281 104.682 96.566 104.682 99.5212 104.682C99.5309 104.159 99.3795 103.645 99.0876 103.21C98.9966 103.231 98.8742 103.238 99.0631 103.182C98.8922 102.048 98.5254 100.951 97.9789 99.9418C97.9463 99.8724 97.9101 99.8048 97.8705 99.7391C97.6357 99.3932 97.4607 99.0104 97.3529 98.6065C97.726 98.4876 98.1269 98.4876 98.5 98.6065C98.9302 98.7918 99.154 99.2567 99.3429 99.6866C99.5037 100.036 99.6646 100.41 99.808 100.777C99.808 100.816 99.843 100.858 99.857 100.896C100.162 101.619 100.358 102.384 100.438 103.165C100.458 103.451 100.528 103.815 100.766 103.909C100.804 103.926 100.844 103.936 100.885 103.937C101.131 103.847 101.399 103.832 101.654 103.895C101.908 103.957 102.139 104.093 102.316 104.287C102.66 104.681 102.9 105.154 103.015 105.664C103.129 106.174 103.295 106.671 103.512 107.146C103.963 108.006 103.274 108.391 104.089 108.919C104.47 109.128 104.798 109.422 105.047 109.779C105.277 110.275 105.351 110.83 105.257 111.369V111.369Z" fill="black"/>
<path opacity="0.1" d="M84.9448 220.981C85.1092 221.785 85.2945 222.582 85.4904 223.379L85.4694 223.428C83.8711 222.729 82.2344 221.999 80.4893 221.845C78.8701 221.705 77.111 222.142 76.0093 223.316C75.994 223.06 75.9601 222.806 75.9079 222.554C75.8018 222.267 75.8144 221.949 75.9429 221.67C76.4395 220.765 77.639 220.583 78.5623 220.513C80.7013 220.352 82.8523 220.51 84.9448 220.981Z" fill="black"/>
<path opacity="0.1" d="M98.7206 103.85C98.8854 103.85 98.8258 103.85 98.7452 103.878C98.6645 103.906 98.5313 103.906 98.7206 103.85Z" fill="black"/>
<path opacity="0.1" d="M106.32 216.451C104.76 217.445 103.295 218.578 101.941 219.838C101.548 220.259 101.08 220.602 100.56 220.849C100.023 221.021 99.4559 221.08 98.8952 221.02C96.6951 220.931 94.5021 220.714 92.3273 220.37V220.37C92.1806 220.305 92.0553 220.2 91.9661 220.067C91.8769 219.934 91.8275 219.778 91.8237 219.618C91.8517 219.174 92.3133 218.919 92.719 218.727C96.3177 217.171 100.228 216.497 104.11 215.955C104.504 215.889 104.889 215.771 105.253 215.605C105.69 215.43 105.736 215.717 105.953 216.039C106.061 216.188 106.184 216.327 106.32 216.451V216.451Z" fill="black"/>
<path d="M80.6605 99.7952C81.1746 100.253 81.7622 100.624 82.2833 101.068C83.6822 102.253 84.5635 103.91 85.4308 105.525C84.9165 105.71 84.3602 105.748 83.8256 105.633C83.5506 107.184 83.597 108.774 83.962 110.307C83.2622 110.786 82.7186 111.461 82.3987 112.247C82.1501 113.044 81.9791 113.863 81.8881 114.694C81.3845 118.331 80.8785 121.969 80.3703 125.607C80.3601 125.963 80.2377 126.307 80.0206 126.589C79.9235 126.668 79.8345 126.755 79.7548 126.851C79.6477 127.087 79.6055 127.346 79.6324 127.603C79.6114 127.858 79.4435 128.162 79.1882 128.127C79.0642 128.098 78.9542 128.026 78.877 127.925C78.6216 127.654 78.3877 127.364 78.1775 127.058C76.1141 131.015 75.1209 135.279 74.0298 139.607C73.2499 142.69 72.47 145.808 72.4315 148.989C72.4421 150.494 72.5366 151.997 72.7148 153.492L73.0226 156.561C73.2709 159.029 73.5192 161.5 73.7885 163.968C73.9633 165.534 74.1382 167.114 74.7012 168.589C75.5406 170.83 74.6103 173.357 74.967 175.727C75.2468 177.583 75.8029 179.502 75.2433 181.292C75.0195 182.009 74.6278 182.663 74.334 183.355C73.6136 185.075 73.5402 186.987 73.4772 188.85C73.3639 190.483 73.4249 192.123 73.6591 193.744C73.9598 195.418 74.6348 197.058 74.5019 198.749C74.3165 201.158 72.5399 203.217 72.3231 205.622C72.1517 207.541 72.9946 209.394 73.9004 211.096C74.5683 212.351 73.6381 213.973 73.2849 215.354C72.5854 218.059 73.75 220.891 75.1769 223.292C75.2132 223.375 75.2777 223.441 75.3587 223.481C75.5231 223.54 75.67 223.38 75.7784 223.243C76.852 221.866 78.7546 221.345 80.4997 221.495C82.2448 221.646 83.878 222.366 85.4798 223.079L87.7495 218.028C88.1342 217.171 88.5259 216.245 88.3335 215.326C88.1971 214.668 87.774 214.113 87.4732 213.511C86.7737 212.092 86.7388 210.439 86.7318 208.848L86.6898 199.864C88.4594 197.641 89.5401 194.999 90.222 192.237C91.2683 196.121 91.3403 200.203 90.4319 204.122C90.2638 204.715 90.1468 205.32 90.0821 205.933C89.9457 208.425 91.9007 210.533 92.4218 212.973C92.4723 213.16 92.4865 213.354 92.4638 213.546C92.4051 213.783 92.307 214.007 92.1735 214.211C91.2362 215.909 91.3377 217.968 91.474 219.905C93.9265 220.332 96.4044 220.597 98.8917 220.698C99.4525 220.754 100.019 220.696 100.556 220.527C101.076 220.279 101.545 219.935 101.938 219.513C103.526 218.021 105.269 216.702 107.138 215.581C106.094 213.85 104.634 212.408 102.889 211.386C103.452 210.558 104.736 210.624 105.484 209.96C105.86 209.588 106.105 209.105 106.183 208.583C106.463 207.212 106.117 205.786 105.771 204.44C105.099 201.791 104.424 199.13 103.323 196.628C102.825 195.599 102.385 194.543 102.008 193.464C101.091 190.451 101.731 187.172 101.039 184.092C100.815 183.106 100.455 182.089 100.707 181.107C101.091 179.593 102.805 178.695 103.183 177.178C104.536 171.777 104.778 166.181 105.547 160.668C105.719 159.615 105.811 158.55 105.823 157.484C105.823 156.368 105.624 155.264 105.543 154.152C105.229 149.702 106.652 145.263 106.288 140.816C106.055 138.076 105.152 135.435 103.658 133.126C101.088 129.158 102.882 123.545 103.151 118.825C103.172 117.247 103.547 115.694 104.249 114.281C104.619 113.465 104.838 112.588 104.896 111.694C105.004 111.143 104.936 110.572 104.701 110.062C104.455 109.704 104.127 109.41 103.746 109.202C102.931 108.671 103.62 108.286 103.169 107.426C102.952 106.951 102.785 106.454 102.672 105.944C102.558 105.435 102.317 104.962 101.973 104.57C101.796 104.377 101.566 104.24 101.311 104.178C101.056 104.116 100.789 104.131 100.542 104.221C100.21 104.221 100.119 103.78 100.091 103.448C99.9968 102.232 99.4932 101.089 99.0001 99.97C98.8113 99.5401 98.5874 99.0752 98.1573 98.8899C97.7827 98.7728 97.3813 98.7728 97.0067 98.8899C97.115 99.2953 97.2912 99.6794 97.5278 100.026C98.134 101.089 98.5372 102.255 98.7168 103.466C98.3671 103.571 99.0666 103.466 98.7168 103.466C99.03 103.902 99.191 104.429 99.175 104.965C96.2233 104.965 92.2854 104.965 89.3302 104.965C89.2102 104.975 89.0897 104.953 88.9805 104.902C88.8457 104.796 88.7468 104.651 88.6972 104.486C88.4568 103.995 88.1509 103.539 87.7879 103.13L84.3257 98.8619C84.2488 98.7504 84.147 98.6582 84.0284 98.5928C83.8855 98.5524 83.7342 98.5524 83.5912 98.5928C82.4686 98.757 81.6398 99.2255 80.6605 99.7952Z" fill="#6C63FF"/>
<path opacity="0.1" d="M93.0861 157.627C93.683 157.619 94.2712 157.771 94.7893 158.067C95.0464 158.218 95.2597 158.434 95.4081 158.693C95.5565 158.951 95.6349 159.244 95.6356 159.542C95.5971 160.203 95.09 160.727 94.7228 161.29C94.4956 161.633 94.3145 162.005 94.1843 162.395C94.1441 162.484 94.1343 162.583 94.1563 162.678C94.1982 162.811 94.3416 162.877 94.464 162.937C94.909 163.138 95.289 163.459 95.5614 163.864C95.8339 164.269 95.9879 164.742 96.0063 165.23C95.9748 166.593 94.6424 167.698 94.7158 169.075C94.7492 169.362 94.7982 169.646 94.8627 169.928C95.0227 171.102 94.8595 172.297 94.3906 173.385C93.9674 174.483 93.3904 175.514 92.9357 176.601C91.7082 179.555 91.4424 182.827 91.5368 186.039C91.6103 188.22 90.8374 190.297 90.1379 192.373C90.5332 188.191 90.6384 183.986 90.4527 179.789C90.4037 178.649 90.2603 177.573 90.3128 176.43C90.3967 174.616 91.4109 172.966 91.6697 171.186C91.8166 170.169 91.7187 169.134 91.7432 168.107C91.7921 166.009 92.3622 163.94 92.4007 161.836C92.4496 160.35 92.3132 158.819 93.0861 157.627Z" fill="black"/>
<path d="M78.4923 100.543C77.797 100.89 77.1464 101.319 76.5548 101.823C75.9367 102.436 75.4197 103.144 75.023 103.92C74.5401 104.799 74.1069 105.705 73.7256 106.633C73.2324 107.835 72.8233 109.167 73.1625 110.422C73.4703 111.558 74.3411 112.442 74.9426 113.452C75.5441 114.463 75.8974 115.648 76.359 116.756C76.9745 118.235 77.8173 119.612 78.4259 121.094C79.0344 122.576 79.4016 124.24 79.0169 125.782C78.905 126.236 78.1671 126.589 78.1671 127.054C78.1671 127.823 79.2792 128.658 80.0171 128.882C80.8669 129.144 81.7937 128.753 82.4897 128.183C83.7662 127.173 84.5426 125.659 85.1161 124.135C86.0394 121.688 86.5325 119.091 86.9766 116.511C87.2984 114.617 87.5991 112.718 87.7705 110.81C87.9279 109.09 87.9769 107.314 87.5222 105.664C87.098 104.15 86.2728 102.778 85.1336 101.693C84.2243 100.819 82.7345 99.6448 81.4125 99.6133C80.3668 99.6098 79.3876 100.05 78.4923 100.543Z" fill="#464353"/>
<path d="M88.4349 142.683C88.397 142.922 88.3076 143.149 88.173 143.35C88.0383 143.551 87.8616 143.721 87.6551 143.847C87.2424 144.098 86.7927 144.282 86.3226 144.392C85.3853 144.665 84.3921 144.917 83.4444 144.675C82.6995 144.433 82.0118 144.042 81.423 143.525L70.8333 135.422C69.9826 134.82 69.2004 134.126 68.5006 133.353C68.0989 132.854 67.7297 132.33 67.3955 131.783C66.9529 131.158 66.6064 130.47 66.3673 129.742C66.2819 129.422 66.2396 129.091 66.2414 128.76C66.2386 128.446 66.3156 128.137 66.4652 127.861C66.7205 127.435 67.2661 127.347 67.7137 127.229C69.2162 126.84 70.7757 126.722 72.3196 126.879C72.4552 126.873 72.5893 126.91 72.7016 126.987C72.8139 127.063 72.8983 127.174 72.9421 127.302C73.1765 127.732 73.3793 128.179 73.5891 128.627C73.9112 129.39 74.3309 130.108 74.8376 130.763C75.3259 131.293 75.8456 131.794 76.3939 132.262C77.513 133.311 78.4293 134.569 79.6219 135.534C81.0033 136.649 82.682 137.317 84.2557 138.138C85.8295 138.96 87.3823 140.026 88.1727 141.617C88.356 141.941 88.4467 142.31 88.4349 142.683Z" fill="#FBBEBE"/>
<path opacity="0.1" d="M100.693 86.1519C100.693 88.3589 99.8501 90.4826 98.3359 92.0889C96.8218 93.6952 94.7509 94.6627 92.5468 94.7934C90.3426 94.9242 88.1718 94.2085 86.4781 92.7926C84.7844 91.3766 83.6959 89.3675 83.435 87.1759C83.1742 84.9844 83.7608 82.7761 85.0749 81.0025C86.3889 79.2289 88.3312 78.0241 90.5045 77.6343C92.6778 77.2446 94.9179 77.6994 96.7669 78.9058C98.6158 80.1122 99.9338 81.979 100.451 84.1244C100.612 84.7883 100.693 85.4689 100.693 86.1519V86.1519Z" fill="black"/>
<path d="M100.693 85.802C100.693 88.009 99.8501 90.1328 98.3359 91.7391C96.8218 93.3454 94.7509 94.3128 92.5468 94.4436C90.3426 94.5744 88.1718 93.8586 86.4781 92.4427C84.7844 91.0268 83.6959 89.0176 83.435 86.8261C83.1742 84.6346 83.7608 82.4262 85.0749 80.6526C86.3889 78.8791 88.3312 77.6742 90.5045 77.2845C92.6778 76.8948 94.9179 77.3496 96.7669 78.556C98.6158 79.7623 99.9338 81.6291 100.451 83.7746C100.612 84.4385 100.693 85.1191 100.693 85.802V85.802Z" fill="#FBBEBE"/>
<path opacity="0.1" d="M73.5891 128.613C73.1904 128.868 72.5994 128.784 72.1063 128.672C70.1618 128.239 68.0145 127.928 66.2414 128.76C66.2386 128.446 66.3156 128.137 66.4652 127.861C66.7205 127.435 67.2661 127.347 67.7137 127.229C69.2162 126.84 70.7757 126.722 72.3196 126.879C72.4552 126.873 72.5893 126.91 72.7016 126.987C72.8139 127.063 72.8983 127.174 72.9421 127.302C73.1765 127.718 73.3793 128.165 73.5891 128.613Z" fill="black"/>
<path d="M69.9345 116.843C69.5043 118.242 69.1511 119.678 68.3082 120.863C68.0296 121.175 67.8199 121.542 67.6927 121.94C67.6831 122.234 67.6349 122.525 67.5493 122.807C67.4304 123.045 67.1786 123.202 67.0772 123.447C66.9268 123.796 67.1227 124.247 66.9233 124.576C66.83 124.708 66.7181 124.825 66.5911 124.925C66.1155 125.366 65.9966 126.068 65.9861 126.718C65.9756 127.369 66.0385 128.033 65.8252 128.645C67.6717 127.543 70.0219 127.872 72.1202 128.34C72.7043 128.47 73.4282 128.568 73.8059 128.099C74.1836 127.631 73.9668 127.016 74.0192 126.453C74.0892 125.719 74.5928 125.11 74.904 124.443C75.2538 123.691 75.3727 122.852 75.642 122.069C76.198 120.423 77.3906 119.081 78.1565 117.525C78.44 116.99 78.6091 116.402 78.6531 115.798C78.6267 115.016 78.4222 114.249 78.0551 113.557C77.3272 111.947 76.4614 110.402 75.4671 108.94C75.023 108.286 74.2571 107.077 73.5681 108.122C73.0085 108.964 72.6588 110.037 72.2461 110.96C71.3568 112.873 70.5848 114.837 69.9345 116.843Z" fill="#464353"/>
<path d="M101.49 103.273C100.44 103.346 99.3872 103.183 98.4082 102.796C97.4292 102.41 96.5489 101.81 95.8317 101.04C95.7109 100.93 95.6236 100.788 95.5799 100.631C95.5599 100.426 95.6173 100.222 95.7407 100.057C96.1604 99.4107 96.8843 98.9843 97.2201 98.2886C97.5558 97.593 97.4404 96.7925 97.4719 96.0305C97.5278 94.6637 98.0664 93.3109 98.1119 91.9651C98.1281 91.6206 98.1022 91.2755 98.0349 90.9373C97.874 90.4351 97.7753 89.915 97.7412 89.3888C97.7866 88.3646 98.7099 87.5676 98.8638 86.5573C99.0631 85.2709 97.9965 84.1523 96.9228 83.4113C96.1041 82.8437 95.2154 82.3843 94.2789 82.0445C93.7036 81.8385 93.1081 81.6944 92.5023 81.6145C91.3729 81.462 90.2232 81.5905 89.1554 81.9885C88.7134 82.1552 88.2949 82.3785 87.9104 82.6527C87.6813 82.7975 87.4906 82.9954 87.3543 83.2295C87.2422 83.4931 87.192 83.7789 87.2074 84.0649C87.1865 85.4947 87.3473 87.0153 86.6654 88.2597C86.3156 88.9274 85.7211 89.4692 85.4308 90.1753C85.3121 90.4691 85.2378 90.779 85.2105 91.0947C85.1755 91.4221 85.158 91.7511 85.1581 92.0804C85.1371 93.9226 85.1581 95.8662 86.0953 97.4637C86.4261 97.9467 86.7262 98.4499 86.9941 98.9703C87.124 99.2336 87.1842 99.5258 87.1689 99.8189C87.1536 100.112 87.0633 100.396 86.9067 100.645C86.7173 100.871 86.4779 101.051 86.2072 101.169C85.5129 101.502 84.7572 101.688 83.9875 101.716C83.2179 101.744 82.4508 101.612 81.7343 101.33C82.5722 100.536 83.1477 99.5058 83.3839 98.3764C83.6202 97.247 83.5058 96.0724 83.0562 95.0097C82.8036 94.5805 82.6395 94.1051 82.5736 93.6115C82.6087 93.1669 82.7273 92.7328 82.9233 92.3321C83.4027 91.0185 83.477 89.5915 83.1367 88.2352C82.9233 87.4033 82.5526 86.5993 82.4862 85.7429C82.4307 85.0964 82.4589 84.4455 82.5701 83.8063C82.7618 82.6626 83.2659 81.5941 84.0268 80.7188C84.7878 79.8434 85.7759 79.1953 86.8822 78.846C87.0606 78.7866 87.2319 78.7306 87.4278 78.6817C88.2762 78.4934 89.1431 78.4008 90.0122 78.4055C91.9532 78.3426 93.9222 78.2867 95.7932 78.7935C96.8917 79.081 97.9136 79.6061 98.7868 80.3316C99.4067 80.8525 99.9015 81.506 100.235 82.2437C100.417 82.6687 100.554 83.1116 100.644 83.5651C100.724 83.9391 100.784 84.3166 100.843 84.6942C101.266 87.3823 101.69 90.1229 101.238 92.8075C101.06 93.8562 100.749 94.9049 100.609 95.9745C100.27 98.439 100.882 100.889 101.49 103.273Z" fill="#464353"/>
<path d="M89.0644 106.727C89.4237 106.727 89.7149 106.436 89.7149 106.077C89.7149 105.718 89.4237 105.427 89.0644 105.427C88.7052 105.427 88.4139 105.718 88.4139 106.077C88.4139 106.436 88.7052 106.727 89.0644 106.727Z" fill="white"/>
<path d="M100.042 106.419C100.402 106.419 100.693 106.128 100.693 105.769C100.693 105.41 100.402 105.119 100.042 105.119C99.6831 105.119 99.3918 105.41 99.3918 105.769C99.3918 106.128 99.6831 106.419 100.042 106.419Z" fill="white"/>
<path opacity="0.1" d="M89.0645 73.2179L87.6656 70.5787C87.7543 70.4732 87.8514 70.375 87.9559 70.2851C88.1579 70.1607 88.3945 70.1043 88.6309 70.1243L89.0645 73.2179Z" fill="black"/>
<path opacity="0.1" d="M92.9218 70.0021L91.3376 72.3442L90.4353 69.7749C90.8203 69.6096 91.237 69.5308 91.6558 69.5442C92.1004 69.6253 92.5283 69.7801 92.9218 70.0021V70.0021Z" fill="black"/>
<g opacity="0.1">
<path opacity="0.1" d="M86.9067 99.9525C86.7173 100.179 86.4779 100.359 86.2072 100.477C84.967 101.07 83.5523 101.188 82.2309 100.809C82.0772 100.996 81.9113 101.172 81.7343 101.337C82.4508 101.619 83.2179 101.751 83.9875 101.723C84.7572 101.695 85.5129 101.509 86.2072 101.176C86.4779 101.058 86.7173 100.878 86.9067 100.652C87.027 100.477 87.1091 100.279 87.1477 100.071C87.1863 99.8623 87.1804 99.6481 87.1305 99.4421C87.0956 99.627 87.019 99.8015 86.9067 99.9525Z" fill="black"/>
<path opacity="0.1" d="M83.112 88.2457C83.2262 88.7037 83.293 89.1723 83.3114 89.6439C83.3517 88.9387 83.2844 88.2315 83.112 87.5466C82.8987 86.7146 82.528 85.9106 82.4615 85.0542C82.4615 84.9458 82.4615 84.8374 82.444 84.7256C82.4272 85.0682 82.4331 85.4115 82.4615 85.7533C82.528 86.6097 82.8987 87.4137 83.112 88.2457Z" fill="black"/>
<path opacity="0.1" d="M101.214 92.818C101.362 91.8936 101.425 90.9575 101.403 90.0215C101.39 90.7242 101.327 91.4252 101.214 92.1189C101.035 93.1675 100.724 94.2162 100.584 95.2859C100.512 95.8597 100.485 96.4382 100.504 97.0162C100.513 96.6714 100.54 96.3272 100.584 95.985C100.724 94.9154 101.035 93.8772 101.214 92.818Z" fill="black"/>
<path opacity="0.1" d="M83.0421 94.3175C82.8589 93.9733 82.7113 93.6114 82.6014 93.2373C82.5718 93.3633 82.5577 93.4924 82.5595 93.6218C82.6254 94.1154 82.7894 94.5909 83.0421 95.0201C83.2989 95.6061 83.447 96.2338 83.4792 96.8728C83.5425 95.9982 83.3925 95.1213 83.0421 94.3175V94.3175Z" fill="black"/>
<path opacity="0.1" d="M98.035 90.9233C98.0657 91.0828 98.0879 91.2438 98.1014 91.4057C98.1014 91.3533 98.1014 91.3043 98.1014 91.2519C98.1176 90.9075 98.0918 90.5624 98.0245 90.2242C97.9475 89.8571 97.8216 89.4936 97.7622 89.123C97.7448 89.2059 97.7343 89.2901 97.7307 89.3747C97.7683 89.9014 97.8705 90.4215 98.035 90.9233V90.9233Z" fill="black"/>
<path opacity="0.1" d="M95.8316 100.326C95.7778 100.27 95.7275 100.211 95.6812 100.148C95.5952 100.288 95.5594 100.453 95.5798 100.617C95.6235 100.774 95.7108 100.916 95.8316 101.026C96.5489 101.796 97.4292 102.396 98.4081 102.782C99.3871 103.169 100.44 103.332 101.49 103.259C101.431 103.029 101.371 102.801 101.315 102.56C100.294 102.607 99.2746 102.432 98.3277 102.046C97.3809 101.66 96.5292 101.074 95.8316 100.326V100.326Z" fill="black"/>
<path opacity="0.1" d="M98.8567 85.8929C98.8551 85.8802 98.8551 85.8673 98.8567 85.8545C99.056 84.5681 97.9894 83.4495 96.9157 82.7084C96.097 82.1409 95.2083 81.6815 94.2718 81.3416C93.6966 81.1357 93.101 80.9916 92.4952 80.9117C91.3658 80.7592 90.2162 80.8876 89.1483 81.2857C88.7064 81.4524 88.2879 81.6757 87.9033 81.9499C87.6743 82.0947 87.4835 82.2925 87.3473 82.5267C87.2352 82.7903 87.1849 83.0761 87.2004 83.3621C87.2004 83.6033 87.2004 83.8445 87.2004 84.0892V84.0612C87.1849 83.7752 87.2352 83.4894 87.3473 83.2258C87.4835 82.9916 87.6743 82.7938 87.9033 82.649C88.2879 82.3748 88.7064 82.1515 89.1483 81.9848C90.2162 81.5868 91.3658 81.4583 92.4952 81.6108C93.101 81.6907 93.6966 81.8348 94.2718 82.0408C95.2083 82.3806 96.097 82.84 96.9157 83.4076C97.8075 84.0088 98.6853 84.8757 98.8567 85.8929Z" fill="black"/>
<path opacity="0.1" d="M86.6654 87.5675C86.3157 88.2352 85.7211 88.777 85.4309 89.4831C85.3121 89.7769 85.2378 90.0868 85.2105 90.4025C85.1755 90.7299 85.158 91.059 85.1581 91.3883C85.1581 91.6854 85.1581 91.986 85.1581 92.2866C85.1581 92.2202 85.1581 92.1538 85.1581 92.0874C85.158 91.7581 85.1755 91.429 85.2105 91.1016C85.2378 90.7859 85.3121 90.4761 85.4309 90.1823C85.7211 89.4831 86.3017 88.9343 86.6654 88.2667C87.2285 87.218 87.218 86.012 87.2075 84.813C87.2539 85.7616 87.0678 86.7072 86.6654 87.5675V87.5675Z" fill="black"/>
</g>
<path opacity="0.1" d="M100.619 83.5892C100.571 83.6577 100.515 83.7199 100.452 83.7745C100.328 83.876 100.19 83.9585 100.042 84.0192C99.0247 84.4597 99.0667 83.023 98.5351 82.5301C98.1942 82.2787 97.7758 82.155 97.353 82.1805C96.3295 82.1292 95.3048 82.0838 94.2789 82.0442C92.5688 81.9813 90.8621 81.9498 89.1555 81.9882C88.3371 82.0022 87.5211 82.036 86.7074 82.0896C85.7631 82.1525 84.7489 82.2749 83.9446 82.7223C83.6692 82.8737 83.42 83.0685 83.2066 83.2991C83.0143 83.5088 82.8114 83.7745 82.5457 83.8234C82.7373 82.6798 83.2415 81.6113 84.0024 80.7359C84.7634 79.8606 85.7515 79.2125 86.8578 78.8632C88.6487 77.5298 90.8859 76.9399 93.1019 77.2167C95.3178 77.4936 97.3409 78.6158 98.7484 80.3488C99.3683 80.8697 99.8631 81.5231 100.196 82.2609C100.384 82.6876 100.525 83.1329 100.619 83.5892V83.5892Z" fill="black"/>
<path d="M100.042 83.3204C99.0245 83.7608 99.0665 82.3241 98.5349 81.8312C98.194 81.5799 97.7756 81.4562 97.3528 81.4817C93.8089 81.2487 90.2546 81.2183 86.7072 81.3908C85.4447 81.4747 84.0598 81.6634 83.2099 82.6003C82.9931 82.838 82.7658 83.1456 82.4405 83.1351C82.3321 82.436 82.2552 81.7089 82.2027 80.9923C82.171 80.7238 82.1852 80.452 82.2447 80.1883C82.3321 79.8876 82.5315 79.6325 82.6329 79.3388C82.7327 78.9654 82.7682 78.5776 82.7378 78.1923C82.7532 76.7661 83.1366 75.3681 83.851 74.1335C84.5654 72.8989 85.5865 71.8696 86.8156 71.1451C87.1241 70.9943 87.4101 70.8014 87.6654 70.5718C87.7541 70.4663 87.8512 70.3681 87.9557 70.2782C88.1577 70.1538 88.3943 70.0974 88.6307 70.1174C88.7985 70.1174 88.9804 70.1174 89.1273 70.1174C89.5796 70.0676 90.0217 69.9497 90.4388 69.7678C90.8238 69.6025 91.2405 69.5237 91.6593 69.5371C92.1039 69.6182 92.5318 69.773 92.9253 69.995C93.1145 70.0861 93.3125 70.1576 93.5163 70.2083C93.8346 70.2817 94.1633 70.2782 94.4816 70.3411C94.9971 70.4722 95.4866 70.6897 95.9294 70.9843C96.4579 71.2692 96.947 71.6217 97.3843 72.033C97.8598 72.5761 98.2405 73.1953 98.5104 73.8647C98.9736 74.7894 99.3258 75.7657 99.5596 76.773C99.8429 78.2202 99.703 79.7863 100.374 81.1006C100.784 81.9256 101.158 82.8415 100.042 83.3204Z" fill="#FED253"/>
<path opacity="0.1" d="M82.3148 82.2226C82.3148 82.2226 89.5646 75.6299 100.361 81.097C100.361 81.097 88.1727 78.325 82.3148 82.2226Z" fill="black"/>
<path d="M83.0541 145.639L84.9069 144.875L59.3897 82.9947L57.537 83.758L83.0541 145.639Z" fill="#D00000"/>
<path d="M78.0866 134.031C78.0866 134.031 81.1502 136.702 84.2557 138.125C87.3613 139.547 85.3049 144.651 85.3049 144.651C85.3049 144.651 82.014 145.406 79.7093 142.204C77.4046 139.002 78.0866 134.031 78.0866 134.031Z" fill="#FBBEBE"/>
<path opacity="0.1" d="M277.671 152.736C277.671 152.736 293.339 147.042 294.195 142.487" stroke="black" stroke-width="0.45125" stroke-miterlimit="10"/>
<path opacity="0.1" d="M329.521 209.691C329.521 209.691 333.137 219.748 336.316 219.846" stroke="black" stroke-width="0.45125" stroke-miterlimit="10"/>
<g opacity="0.05">
<path opacity="0.05" d="M244.052 212.536C238.021 213.621 231.923 214.288 225.8 214.532C232.938 214.805 240.363 214.032 245.147 213.375C244.776 213.092 244.412 212.819 244.052 212.536Z" fill="black"/>
<path opacity="0.05" d="M305.59 217.094C296.819 219.553 287.791 220.979 278.689 221.345C291.821 221.82 304.261 219.083 309.388 217.769C308.15 217.563 306.894 217.328 305.59 217.094Z" fill="black"/>
</g>
<path d="M77.9362 261.51C77.9362 261.51 85.7735 261.269 88.1341 259.587C90.4948 257.906 100.186 255.899 100.773 258.595C101.361 261.29 112.548 272 103.7 272.074C94.8523 272.147 83.1471 270.696 80.7899 269.26C78.4328 267.823 77.9362 261.51 77.9362 261.51Z" fill="#A8A8A8"/>
<path opacity="0.2" d="M103.861 271.133C95.0132 271.207 83.3044 269.756 80.9473 268.337C79.1532 267.243 78.4363 263.32 78.1985 261.513H77.9362C77.9362 261.513 78.4328 267.83 80.7899 269.263C83.1471 270.696 94.8558 272.147 103.7 272.077C106.257 272.056 107.138 271.147 107.089 269.801C106.736 270.612 105.76 271.119 103.861 271.133Z" fill="black"/>
<path opacity="0.1" d="M180.633 40.9848H178.437C178.845 40.9848 179.236 40.8228 179.525 40.5344C179.813 40.2459 179.975 39.8547 179.975 39.4468C179.975 39.0388 179.813 38.6476 179.525 38.3592C179.236 38.0707 178.845 37.9087 178.437 37.9087H160.643C160.234 37.9087 159.843 38.0707 159.554 38.3592C159.266 38.6476 159.104 39.0388 159.104 39.4468C159.104 39.8547 159.266 40.2459 159.554 40.5344C159.843 40.8228 160.234 40.9848 160.643 40.9848H162.839C162.444 41.0037 162.071 41.1738 161.798 41.4598C161.526 41.7459 161.373 42.1259 161.373 42.5212C161.373 42.9164 161.526 43.2965 161.798 43.5825C162.071 43.8686 162.444 44.0387 162.839 44.0575H159.765C159.357 44.0575 158.965 44.2195 158.677 44.508C158.388 44.7964 158.226 45.1877 158.226 45.5956C158.226 46.0035 158.388 46.3947 158.677 46.6832C158.965 46.9716 159.357 47.1336 159.765 47.1336H177.559C177.967 47.1336 178.358 46.9716 178.647 46.6832C178.935 46.3947 179.098 46.0035 179.098 45.5956C179.098 45.1877 178.935 44.7964 178.647 44.508C178.358 44.2195 177.967 44.0575 177.559 44.0575H180.633C180.841 44.0674 181.049 44.035 181.244 43.9623C181.439 43.8896 181.617 43.778 181.768 43.6344C181.919 43.4907 182.039 43.318 182.121 43.1267C182.203 42.9353 182.245 42.7293 182.245 42.5212C182.245 42.313 182.203 42.107 182.121 41.9157C182.039 41.7243 181.919 41.5516 181.768 41.408C181.617 41.2643 181.439 41.1528 181.244 41.08C181.049 41.0073 180.841 40.9749 180.633 40.9848V40.9848Z" fill="#6C63FF"/>
<path opacity="0.1" d="M249.745 95.1005H247.549C247.944 95.0817 248.317 94.9116 248.59 94.6256C248.862 94.3395 249.015 93.9594 249.015 93.5642C249.015 93.169 248.862 92.7889 248.59 92.5029C248.317 92.2168 247.944 92.0467 247.549 92.0279H229.738C229.53 92.018 229.322 92.0503 229.127 92.1231C228.932 92.1958 228.753 92.3074 228.602 92.451C228.452 92.5946 228.332 92.7674 228.25 92.9587C228.168 93.1501 228.126 93.356 228.126 93.5642C228.126 93.7724 228.168 93.9784 228.25 94.1697C228.332 94.361 228.452 94.5338 228.602 94.6774C228.753 94.821 228.932 94.9326 229.127 95.0053C229.322 95.0781 229.53 95.1104 229.738 95.1005H231.934C231.539 95.1194 231.166 95.2894 230.894 95.5755C230.621 95.8616 230.468 96.2416 230.468 96.6369C230.468 97.0321 230.621 97.4121 230.894 97.6982C231.166 97.9843 231.539 98.1543 231.934 98.1732H228.86C228.452 98.1732 228.06 98.3352 227.772 98.6237C227.483 98.9121 227.321 99.3033 227.321 99.7113C227.321 100.119 227.483 100.51 227.772 100.799C228.06 101.087 228.452 101.249 228.86 101.249H246.65C247.058 101.249 247.45 101.087 247.738 100.799C248.027 100.51 248.189 100.119 248.189 99.7113C248.189 99.3033 248.027 98.9121 247.738 98.6237C247.45 98.3352 247.058 98.1732 246.65 98.1732H249.745C249.953 98.1831 250.161 98.1507 250.356 98.078C250.552 98.0053 250.73 97.8937 250.881 97.7501C251.031 97.6064 251.151 97.4337 251.233 97.2423C251.315 97.051 251.358 96.845 251.358 96.6369C251.358 96.4287 251.315 96.2227 251.233 96.0314C251.151 95.84 251.031 95.6673 250.881 95.5237C250.73 95.38 250.552 95.2685 250.356 95.1957C250.161 95.123 249.953 95.0906 249.745 95.1005V95.1005Z" fill="#6C63FF"/>
<path opacity="0.1" d="M147.336 85.0891H145.139C145.347 85.099 145.555 85.0666 145.75 84.9939C145.946 84.9211 146.124 84.8096 146.275 84.6659C146.425 84.5223 146.545 84.3496 146.627 84.1582C146.709 83.9669 146.751 83.7609 146.751 83.5527C146.751 83.3446 146.709 83.1386 146.627 82.9472C146.545 82.7559 146.425 82.5832 146.275 82.4395C146.124 82.2959 145.946 82.1843 145.75 82.1116C145.555 82.0389 145.347 82.0065 145.139 82.0164H127.342C127.134 82.0065 126.926 82.0389 126.731 82.1116C126.536 82.1843 126.357 82.2959 126.207 82.4395C126.056 82.5832 125.936 82.7559 125.854 82.9472C125.772 83.1386 125.73 83.3446 125.73 83.5527C125.73 83.7609 125.772 83.9669 125.854 84.1582C125.936 84.3496 126.056 84.5223 126.207 84.6659C126.357 84.8096 126.536 84.9211 126.731 84.9939C126.926 85.0666 127.134 85.099 127.342 85.0891H129.538C129.33 85.0791 129.122 85.1115 128.927 85.1842C128.732 85.257 128.554 85.3685 128.403 85.5122C128.252 85.6558 128.132 85.8285 128.05 86.0199C127.968 86.2112 127.926 86.4172 127.926 86.6254C127.926 86.8335 127.968 87.0395 128.05 87.2309C128.132 87.4222 128.252 87.5949 128.403 87.7386C128.554 87.8822 128.732 87.9938 128.927 88.0665C129.122 88.1392 129.33 88.1716 129.538 88.1617H126.461C126.052 88.1617 125.661 88.3237 125.372 88.6122C125.084 88.9006 124.922 89.2919 124.922 89.6998C124.922 90.1077 125.084 90.4989 125.372 90.7874C125.661 91.0758 126.052 91.2378 126.461 91.2378H144.255C144.663 91.2378 145.054 91.0758 145.343 90.7874C145.631 90.4989 145.793 90.1077 145.793 89.6998C145.793 89.2919 145.631 88.9006 145.343 88.6122C145.054 88.3237 144.663 88.1617 144.255 88.1617H147.329C147.537 88.1716 147.745 88.1392 147.94 88.0665C148.135 87.9938 148.313 87.8822 148.464 87.7386C148.615 87.5949 148.735 87.4222 148.817 87.2309C148.899 87.0395 148.941 86.8335 148.941 86.6254C148.941 86.4172 148.899 86.2112 148.817 86.0199C148.735 85.8285 148.615 85.6558 148.464 85.5122C148.313 85.3685 148.135 85.257 147.94 85.1842C147.745 85.1115 147.537 85.0791 147.329 85.0891H147.336Z" fill="#6C63FF"/>
<circle cx="54.5" cy="76.5" r="18.5" transform="rotate(-22.0377 54.5 76.5)" fill="#FED253"/>
<path d="M69.7654 79.0046L50.7384 63.9366C50.6116 63.8426 50.4599 63.7833 50.2985 63.7647C50.1371 63.7461 49.9717 63.7689 49.8189 63.8307C49.6662 63.8926 49.5315 63.9913 49.4285 64.1169C49.3254 64.2425 49.2576 64.3907 49.232 64.5464L46.0451 88.6063C46.0203 88.7583 46.0379 88.9121 46.0958 89.0522C46.1538 89.1923 46.2502 89.3136 46.3751 89.4037C46.6315 89.5888 46.976 89.626 47.2827 89.5018L69.4979 80.5093C69.6484 80.4486 69.7814 80.352 69.8838 80.2289C69.9862 80.1058 70.0544 79.9606 70.0817 79.8075C70.1087 79.6559 70.0937 79.5018 70.0381 79.3607C69.9826 79.2197 69.8885 79.0968 69.7654 79.0046ZM58.6851 82.1481L56.1909 83.1577L55.2386 80.8051L57.7327 79.7955L58.6851 82.1481ZM57.0185 78.0311L54.5244 79.0407L51.4294 71.3947L53.9235 70.3851L57.0185 78.0311Z" fill="black"/>
</g>
<defs>
<clipPath id="clip0_469_388">
<rect width="361" height="291.056" fill="white" transform="translate(0 0.837402)"/>
</clipPath>
</defs>
</svg>
