<svg width="233" height="66" viewBox="0 0 233 66" fill="none" xmlns="http://www.w3.org/2000/svg">
<path d="M6.12241 13.2H25.3224V19.6H13.1624V31.44H22.8264V37.84H13.1624V51.6H25.3224V58H6.12241V13.2ZM29.3724 13.2H39.8044C43.4311 13.2 46.0764 14.0533 47.7404 15.76C49.4044 17.424 50.2364 20.0053 50.2364 23.504V26.256C50.2364 30.9067 48.7004 33.8507 45.6284 35.088V35.216C47.3351 35.728 48.5297 36.7733 49.2124 38.352C49.9377 39.9307 50.3004 42.0427 50.3004 44.688V52.56C50.3004 53.84 50.3431 54.8853 50.4284 55.696C50.5137 56.464 50.7271 57.232 51.0684 58H43.9004C43.6444 57.2747 43.4737 56.592 43.3884 55.952C43.3031 55.312 43.2604 54.16 43.2604 52.496V44.304C43.2604 42.256 42.9191 40.8267 42.2364 40.016C41.5964 39.2053 40.4657 38.8 38.8444 38.8H36.4124V58H29.3724V13.2ZM38.9724 32.4C40.3804 32.4 41.4257 32.0373 42.1084 31.312C42.8337 30.5867 43.1964 29.3707 43.1964 27.664V24.208C43.1964 22.5867 42.8977 21.4133 42.3004 20.688C41.7457 19.9627 40.8497 19.6 39.6124 19.6H36.4124V32.4H38.9724ZM55.1849 13.2H65.6169C69.2436 13.2 71.8889 14.0533 73.5529 15.76C75.2169 17.424 76.0489 20.0053 76.0489 23.504V26.256C76.0489 30.9067 74.5129 33.8507 71.4409 35.088V35.216C73.1476 35.728 74.3422 36.7733 75.0249 38.352C75.7502 39.9307 76.1129 42.0427 76.1129 44.688V52.56C76.1129 53.84 76.1556 54.8853 76.2409 55.696C76.3262 56.464 76.5396 57.232 76.8809 58H69.7129C69.4569 57.2747 69.2862 56.592 69.2009 55.952C69.1156 55.312 69.0729 54.16 69.0729 52.496V44.304C69.0729 42.256 68.7316 40.8267 68.0489 40.016C67.4089 39.2053 66.2782 38.8 64.6569 38.8H62.2249V58H55.1849V13.2ZM64.7849 32.4C66.1929 32.4 67.2382 32.0373 67.9209 31.312C68.6462 30.5867 69.0089 29.3707 69.0089 27.664V24.208C69.0089 22.5867 68.7102 21.4133 68.1129 20.688C67.5582 19.9627 66.6622 19.6 65.4249 19.6H62.2249V32.4H64.7849ZM91.1734 58.64C87.7174 58.64 85.0721 57.6587 83.2374 55.696C81.4027 53.7333 80.4854 50.96 80.4854 47.376V23.824C80.4854 20.24 81.4027 17.4667 83.2374 15.504C85.0721 13.5413 87.7174 12.56 91.1734 12.56C94.6294 12.56 97.2747 13.5413 99.1094 15.504C100.944 17.4667 101.861 20.24 101.861 23.824V47.376C101.861 50.96 100.944 53.7333 99.1094 55.696C97.2747 57.6587 94.6294 58.64 91.1734 58.64ZM91.1734 52.24C93.6054 52.24 94.8214 50.768 94.8214 47.824V23.376C94.8214 20.432 93.6054 18.96 91.1734 18.96C88.7414 18.96 87.5254 20.432 87.5254 23.376V47.824C87.5254 50.768 88.7414 52.24 91.1734 52.24ZM106.622 13.2H117.054C120.681 13.2 123.326 14.0533 124.99 15.76C126.654 17.424 127.486 20.0053 127.486 23.504V26.256C127.486 30.9067 125.95 33.8507 122.878 35.088V35.216C124.585 35.728 125.78 36.7733 126.462 38.352C127.188 39.9307 127.55 42.0427 127.55 44.688V52.56C127.55 53.84 127.593 54.8853 127.678 55.696C127.764 56.464 127.977 57.232 128.318 58H121.15C120.894 57.2747 120.724 56.592 120.638 55.952C120.553 55.312 120.51 54.16 120.51 52.496V44.304C120.51 42.256 120.169 40.8267 119.486 40.016C118.846 39.2053 117.716 38.8 116.094 38.8H113.662V58H106.622V13.2ZM116.222 32.4C117.63 32.4 118.676 32.0373 119.358 31.312C120.084 30.5867 120.446 29.3707 120.446 27.664V24.208C120.446 22.5867 120.148 21.4133 119.55 20.688C118.996 19.9627 118.1 19.6 116.862 19.6H113.662V32.4H116.222ZM154.461 49.872H141.021V43.472L153.821 13.2H161.501V43.472H164.829V49.872H161.501V58H154.461V49.872ZM154.461 43.472V26H154.333L147.421 43.472H154.461ZM178.486 58.64C175.03 58.64 172.385 57.6587 170.55 55.696C168.715 53.7333 167.798 50.96 167.798 47.376V23.824C167.798 20.24 168.715 17.4667 170.55 15.504C172.385 13.5413 175.03 12.56 178.486 12.56C181.942 12.56 184.587 13.5413 186.422 15.504C188.257 17.4667 189.174 20.24 189.174 23.824V47.376C189.174 50.96 188.257 53.7333 186.422 55.696C184.587 57.6587 181.942 58.64 178.486 58.64ZM178.486 52.24C180.918 52.24 182.134 50.768 182.134 47.824V23.376C182.134 20.432 180.918 18.96 178.486 18.96C176.054 18.96 174.838 20.432 174.838 23.376V47.824C174.838 50.768 176.054 52.24 178.486 52.24ZM205.711 49.872H192.271V43.472L205.071 13.2H212.751V43.472H216.079V49.872H212.751V58H205.711V49.872ZM205.711 43.472V26H205.583L198.671 43.472H205.711Z" fill="#393E46"/>
<path d="M2.624 13.2H21.824V19.6H9.664V31.44H19.328V37.84H9.664V51.6H21.824V58H2.624V13.2ZM25.874 13.2H36.306C39.9327 13.2 42.578 14.0533 44.242 15.76C45.906 17.424 46.738 20.0053 46.738 23.504V26.256C46.738 30.9067 45.202 33.8507 42.13 35.088V35.216C43.8367 35.728 45.0313 36.7733 45.714 38.352C46.4393 39.9307 46.802 42.0427 46.802 44.688V52.56C46.802 53.84 46.8447 54.8853 46.93 55.696C47.0153 56.464 47.2287 57.232 47.57 58H40.402C40.146 57.2747 39.9753 56.592 39.89 55.952C39.8047 55.312 39.762 54.16 39.762 52.496V44.304C39.762 42.256 39.4207 40.8267 38.738 40.016C38.098 39.2053 36.9673 38.8 35.346 38.8H32.914V58H25.874V13.2ZM35.474 32.4C36.882 32.4 37.9273 32.0373 38.61 31.312C39.3353 30.5867 39.698 29.3707 39.698 27.664V24.208C39.698 22.5867 39.3993 21.4133 38.802 20.688C38.2473 19.9627 37.3513 19.6 36.114 19.6H32.914V32.4H35.474ZM51.6865 13.2H62.1185C65.7452 13.2 68.3905 14.0533 70.0545 15.76C71.7185 17.424 72.5505 20.0053 72.5505 23.504V26.256C72.5505 30.9067 71.0145 33.8507 67.9425 35.088V35.216C69.6492 35.728 70.8438 36.7733 71.5265 38.352C72.2518 39.9307 72.6145 42.0427 72.6145 44.688V52.56C72.6145 53.84 72.6572 54.8853 72.7425 55.696C72.8278 56.464 73.0412 57.232 73.3825 58H66.2145C65.9585 57.2747 65.7878 56.592 65.7025 55.952C65.6172 55.312 65.5745 54.16 65.5745 52.496V44.304C65.5745 42.256 65.2332 40.8267 64.5505 40.016C63.9105 39.2053 62.7798 38.8 61.1585 38.8H58.7265V58H51.6865V13.2ZM61.2865 32.4C62.6945 32.4 63.7398 32.0373 64.4225 31.312C65.1478 30.5867 65.5105 29.3707 65.5105 27.664V24.208C65.5105 22.5867 65.2118 21.4133 64.6145 20.688C64.0598 19.9627 63.1638 19.6 61.9265 19.6H58.7265V32.4H61.2865ZM87.675 58.64C84.219 58.64 81.5737 57.6587 79.739 55.696C77.9043 53.7333 76.987 50.96 76.987 47.376V23.824C76.987 20.24 77.9043 17.4667 79.739 15.504C81.5737 13.5413 84.219 12.56 87.675 12.56C91.131 12.56 93.7763 13.5413 95.611 15.504C97.4457 17.4667 98.363 20.24 98.363 23.824V47.376C98.363 50.96 97.4457 53.7333 95.611 55.696C93.7763 57.6587 91.131 58.64 87.675 58.64ZM87.675 52.24C90.107 52.24 91.323 50.768 91.323 47.824V23.376C91.323 20.432 90.107 18.96 87.675 18.96C85.243 18.96 84.027 20.432 84.027 23.376V47.824C84.027 50.768 85.243 52.24 87.675 52.24ZM103.124 13.2H113.556C117.183 13.2 119.828 14.0533 121.492 15.76C123.156 17.424 123.988 20.0053 123.988 23.504V26.256C123.988 30.9067 122.452 33.8507 119.38 35.088V35.216C121.087 35.728 122.281 36.7733 122.964 38.352C123.689 39.9307 124.052 42.0427 124.052 44.688V52.56C124.052 53.84 124.095 54.8853 124.18 55.696C124.265 56.464 124.479 57.232 124.82 58H117.652C117.396 57.2747 117.225 56.592 117.14 55.952C117.055 55.312 117.012 54.16 117.012 52.496V44.304C117.012 42.256 116.671 40.8267 115.988 40.016C115.348 39.2053 114.217 38.8 112.596 38.8H110.164V58H103.124V13.2ZM112.724 32.4C114.132 32.4 115.177 32.0373 115.86 31.312C116.585 30.5867 116.948 29.3707 116.948 27.664V24.208C116.948 22.5867 116.649 21.4133 116.052 20.688C115.497 19.9627 114.601 19.6 113.364 19.6H110.164V32.4H112.724ZM150.963 49.872H137.523V43.472L150.323 13.2H158.003V43.472H161.331V49.872H158.003V58H150.963V49.872ZM150.963 43.472V26H150.835L143.923 43.472H150.963ZM174.988 58.64C171.532 58.64 168.886 57.6587 167.052 55.696C165.217 53.7333 164.299 50.96 164.299 47.376V23.824C164.299 20.24 165.217 17.4667 167.052 15.504C168.886 13.5413 171.532 12.56 174.988 12.56C178.444 12.56 181.089 13.5413 182.924 15.504C184.758 17.4667 185.676 20.24 185.676 23.824V47.376C185.676 50.96 184.758 53.7333 182.924 55.696C181.089 57.6587 178.444 58.64 174.988 58.64ZM174.988 52.24C177.42 52.24 178.635 50.768 178.635 47.824V23.376C178.635 20.432 177.42 18.96 174.988 18.96C172.556 18.96 171.34 20.432 171.34 23.376V47.824C171.34 50.768 172.556 52.24 174.988 52.24ZM202.213 49.872H188.773V43.472L201.573 13.2H209.253V43.472H212.581V49.872H209.253V58H202.213V49.872ZM202.213 43.472V26H202.085L195.173 43.472H202.213Z" fill="#6369FF"/>
</svg>
